<svg width="94" height="91" viewBox="0 0 94 91" fill="none" xmlns="http://www.w3.org/2000/svg">
<g id="instagram 1" clip-path="url(#clip0_16_7)">
<path id="Vector" d="M93.7174 26.7407C93.4887 21.8974 92.694 18.5899 91.5322 15.6962C90.3525 12.6601 88.5022 9.91008 86.1112 7.63702C83.7639 5.32231 80.9225 3.53039 77.7864 2.38761C74.7965 1.26358 71.3807 0.495018 66.3777 0.274933C61.3655 0.0527649 59.7641 0 47 0C34.2359 0 32.6345 0.0527649 27.6223 0.273544C22.6193 0.495018 19.2035 1.26427 16.2136 2.389C13.0775 3.53108 10.2368 5.32231 7.88879 7.63702C5.49777 9.90939 3.64677 12.6594 2.46632 15.6955C1.30524 18.5899 0.511337 21.8974 0.283997 26.74C0.0545044 31.593 0 33.1426 0 45.4993C0 57.8567 0.0545044 59.407 0.283997 64.2593C0.512054 69.1019 1.30667 72.4094 2.46848 75.3038C3.64821 78.3392 5.49849 81.0899 7.88951 83.3623C10.2368 85.677 13.0782 87.4682 16.2143 88.6103C19.2035 89.7357 22.62 90.5043 27.623 90.7258C32.6359 90.9472 34.2366 90.9993 47.0007 90.9993C59.7648 90.9993 61.3662 90.9472 66.3785 90.7258C71.3814 90.5043 74.7972 89.7357 77.7871 88.6103C84.1003 86.247 89.091 81.4155 91.5322 75.3038C92.6948 72.4094 93.4887 69.1019 93.7174 64.2593C93.9455 59.4063 94 57.8567 94 45.5C94 33.1426 93.9455 31.593 93.7174 26.7407ZM85.2571 63.8865C85.0484 68.3229 84.2824 70.732 83.6391 72.3351C82.0578 76.3036 78.8184 79.4396 74.7191 80.9705C73.0631 81.5933 70.5746 82.3348 65.9919 82.5368C61.037 82.7562 59.5504 82.802 47 82.802C34.4489 82.802 32.963 82.7562 28.0074 82.5368C23.4254 82.3348 20.9369 81.5933 19.2802 80.9705C17.2392 80.2408 15.3925 79.0779 13.8764 77.5665C12.3151 76.0988 11.1139 74.3117 10.3601 72.3351C9.71684 70.732 8.95091 68.3229 8.74222 63.8865C8.51631 59.089 8.46826 57.6498 8.46826 45.5007C8.46826 33.3509 8.51631 31.9123 8.74222 27.1142C8.95163 22.6778 9.71684 20.2687 10.3601 18.6656C11.1139 16.689 12.3158 14.9012 13.8764 13.4335C15.3925 11.9221 17.2392 10.7592 19.2809 10.0302C20.9369 9.40673 23.4254 8.66594 28.0081 8.46321C32.9637 8.24452 34.4504 8.198 47 8.198H46.9993C59.5489 8.198 61.0356 8.24452 65.9919 8.46391C70.5746 8.66594 73.0624 9.40743 74.7191 10.0302C76.7601 10.7599 78.6068 11.9228 80.1229 13.4335C81.6842 14.9012 82.8854 16.689 83.6384 18.6656C84.2824 20.2687 85.0484 22.6778 85.2571 27.1142C85.483 31.9117 85.531 33.3509 85.531 45.5C85.531 57.6498 85.4837 59.0884 85.2571 63.8865Z" fill="url(#paint0_linear_16_7)"/>
<path id="Vector_2" d="M46.9993 22.1349C33.6701 22.1349 22.8646 32.5962 22.8646 45.5C22.8646 58.4038 33.6701 68.8644 46.9993 68.8644C60.3292 68.8644 71.1347 58.4038 71.1347 45.5C71.1347 32.5962 60.3292 22.1349 46.9993 22.1349ZM46.9993 60.6664C38.3475 60.6657 31.3329 53.8757 31.3336 45.4993C31.3336 37.1236 38.3475 30.3329 47 30.3329C55.6526 30.3336 62.6665 37.1236 62.6665 45.4993C62.6665 53.8757 55.6519 60.6664 46.9993 60.6664Z" fill="url(#paint1_linear_16_7)"/>
<path id="Vector_3" d="M77.7283 21.2122C77.7283 24.2274 75.2031 26.672 72.0885 26.672C68.9731 26.672 66.448 24.2274 66.448 21.2122C66.448 18.1963 68.9731 15.7517 72.0885 15.7517C75.2031 15.7517 77.7283 18.1963 77.7283 21.2122Z" fill="url(#paint2_linear_16_7)"/>
</g>
<defs>
<linearGradient id="paint0_linear_16_7" x1="7.88832" y1="83.3627" x2="83.5754" y2="5.18047" gradientUnits="userSpaceOnUse">
<stop stop-color="#FFD600"/>
<stop offset="0.5" stop-color="#FF0100"/>
<stop offset="1" stop-color="#D800B9"/>
</linearGradient>
<linearGradient id="paint1_linear_16_7" x1="29.9337" y1="62.0211" x2="62.9591" y2="27.9069" gradientUnits="userSpaceOnUse">
<stop stop-color="#FF6400"/>
<stop offset="0.5" stop-color="#FF0100"/>
<stop offset="1" stop-color="#FD0056"/>
</linearGradient>
<linearGradient id="paint2_linear_16_7" x1="68.1002" y1="25.0726" x2="75.8176" y2="17.1008" gradientUnits="userSpaceOnUse">
<stop stop-color="#F30072"/>
<stop offset="1" stop-color="#E50097"/>
</linearGradient>
<clipPath id="clip0_16_7">
<rect width="94" height="91" fill="white"/>
</clipPath>
</defs>
</svg>
